<?xml version="1.0" encoding="UTF-8"?>
<svg id="Layer_1" data-name="Layer 1" xmlns="http://www.w3.org/2000/svg" viewBox="0 0 523.58 211.36">
  <g id="IexEbZ.tif">
    <path style="fill: #0052cc;"
      d="M188.81,0H22.57C10.1,0,0,10.1,0,22.55V188.79c0,12.47,10.1,22.57,22.57,22.57H188.81c12.45,0,22.55-10.1,22.55-22.57V22.55C211.36,10.1,201.26,0,188.81,0ZM93.33,95.37c-.02-4.82,2.17-8.49,6.4-10.85,4.51-2.52,9.13-2.17,13.29,.77,3.5,2.45,5.15,6.28,5.1,10.08,0,.35-.04,.7-.07,1.06-.11,1.08-.46,2.13-.98,3.1-.66,1.3-1.32,2.6-1.99,3.91-.66,1.28-1.32,2.56-1.98,3.85-.15,.25-.52,.49-.83,.49-.93,0-1.83,.02-2.75,.02-2.58,.02-5.15,.02-7.72,0-.88,0-1.76-.02-2.62-.02-.31,0-.68-.24-.82-.49-.61-1.16-1.21-2.31-1.8-3.49-.75-1.41-1.49-2.82-2.2-4.25-.57-1.1-.94-2.31-1.01-3.56v-.02c-.02-.2-.02-.4-.02-.6Zm12.4-28.73c-15.26,0-27.67,12.41-27.67,27.67,0,11.35,6.89,21.15,16.71,25.4l-1.79,10.13c-14.57-5.22-25-19.16-25-35.53,0-20.87,16.9-37.75,37.75-37.75,11.75,0,22.25,5.37,29.16,13.79l-.8,.58c-2.42,1.8-4.88,3.58-7.3,5.37l-.06,.04c-5.06-5.94-12.61-9.7-21-9.7Zm-14.67,100.28l2.02-11.29c.11-.61,.2-1.19,.31-1.8,.13-.68,.25-1.37,.36-2.07l.02-.16,1.38-7.72,2.25-12.76,1.78-9.94,.35-2.01c.31-1.87,.64-3.74,.97-5.6l.06-.33h6.49c.8,0,1.61,0,2.32-.01,.5,.01,.99,.01,1.51,0l1.43,7.93,.18,1.01c.53,2.97,1.05,5.96,1.58,8.93v.02l.4,2.33c.62,3.48,1.23,6.96,1.83,10.43,.43,2.31,.83,4.6,1.23,6.91l.02,.62,.13,.13,.38,2.29,.39,2.18c.66,3.69,1.3,7.39,1.96,11.04,.18,1.1-.02,1.91-.68,2.69v.02c-1.98,2.4-3.94,4.81-5.9,7.21s-3.92,4.82-5.89,7.22c-.67,.83-1.46,1.27-2.23,1.27-.96,0-1.71-.66-2.18-1.25-1.76-2.15-3.52-4.29-5.28-6.45-2.17-2.66-4.35-5.32-6.53-7.94-.68-.85-.86-1.67-.66-2.9Zm27.43-37.08l-1.81-10.14c5.62-2.42,10.28-6.67,13.24-11.97l9.39,3.79c-4.33,8.47-11.77,15.07-20.82,18.32Zm-12.76-86.22c-27.96,0-50.69,22.73-50.69,50.69,0,22.7,15.01,41.98,35.65,48.4l-1.43,8.08-.05,.36c-.08,.53-.18,1.05-.28,1.58-25.4-7.29-43.98-30.69-43.98-58.42,0-33.57,27.21-60.78,60.78-60.78,19.35,0,36.59,9.04,47.72,23.14l-2.66,1.94-.06,.17-.55,.29c-1.63,1.19-3.26,2.4-4.89,3.61-9.28-11.62-23.56-19.06-39.56-19.06Zm16.8,109.1l-.48-2.72c-.41-2.32-.81-4.62-1.23-6.91l-.06-.38c13.44-4.17,24.51-13.81,30.58-26.31l6.95,2.8,.16,.06c.77,.29,1.52,.6,2.27,.91-7.37,15.69-21.26,27.7-38.19,32.55Z" />
  </g>
  <g>
    <path
      d="M260.86,52.75c10.68,0,19.36,5.72,22.6,15.57h-11.09c-2.27-4.62-6.41-6.89-11.58-6.89-8.41,0-14.4,6.13-14.4,15.92s6,15.92,14.4,15.92c5.17,0,9.3-2.27,11.58-6.96h11.09c-3.24,9.92-11.92,15.57-22.6,15.57-13.85,0-24.39-10.13-24.39-24.53s10.54-24.6,24.39-24.6Z" />
    <path
      d="M306.68,62.67c6.13,0,10.34,2.89,12.61,6.06v-5.44h9.72v38.18h-9.72v-5.58c-2.27,3.31-6.62,6.2-12.68,6.2-9.65,0-17.36-7.92-17.36-19.85s7.72-19.57,17.43-19.57Zm2.48,8.48c-5.17,0-10.06,3.86-10.06,11.09s4.89,11.37,10.06,11.37,10.13-4,10.13-11.23-4.82-11.23-10.13-11.23Z" />
    <path
      d="M348.09,101.47h-9.65V63.29h9.65v5.93c2.41-3.93,6.41-6.48,11.71-6.48v10.13h-2.55c-5.72,0-9.16,2.21-9.16,9.58v19.02Z" />
    <path
      d="M382.96,102.09c-11.09,0-19.16-7.72-19.16-19.71s7.86-19.71,19.16-19.71,18.81,7.51,18.81,18.88c0,1.24-.07,2.48-.28,3.72h-27.91c.48,5.65,4.34,8.82,9.17,8.82,4.13,0,6.41-2.07,7.65-4.62h10.41c-2.07,7.03-8.41,12.61-17.85,12.61Zm-9.3-23.29h18.12c-.14-5.03-4.13-8.2-9.1-8.2-4.62,0-8.27,2.96-9.03,8.2Z" />
    <path
      d="M425.47,102.09c-11.09,0-19.16-7.72-19.16-19.71s7.86-19.71,19.16-19.71,18.81,7.51,18.81,18.88c0,1.24-.07,2.48-.28,3.72h-27.91c.48,5.65,4.34,8.82,9.17,8.82,4.13,0,6.41-2.07,7.65-4.62h10.41c-2.07,7.03-8.41,12.61-17.85,12.61Zm-9.3-23.29h18.12c-.14-5.03-4.13-8.2-9.1-8.2-4.62,0-8.27,2.96-9.03,8.2Z" />
    <path
      d="M460.96,101.47h-9.65V63.29h9.65v5.93c2.41-3.93,6.41-6.48,11.71-6.48v10.13h-2.55c-5.72,0-9.16,2.21-9.16,9.58v19.02Z" />
    <path
      d="M260.86,109.09c10.68,0,19.36,5.72,22.6,15.57h-11.09c-2.27-4.62-6.41-6.89-11.58-6.89-8.41,0-14.4,6.13-14.4,15.92s6,15.92,14.4,15.92c5.17,0,9.3-2.27,11.58-6.96h11.09c-3.24,9.92-11.92,15.57-22.6,15.57-13.85,0-24.39-10.13-24.39-24.53s10.54-24.6,24.39-24.6Z" />
    <path
      d="M306.68,119.01c6.13,0,10.34,2.89,12.61,6.06v-5.44h9.72v38.18h-9.72v-5.58c-2.27,3.31-6.62,6.2-12.68,6.2-9.65,0-17.36-7.92-17.36-19.85s7.72-19.57,17.43-19.57Zm2.48,8.48c-5.17,0-10.06,3.86-10.06,11.09s4.89,11.37,10.06,11.37,10.13-4,10.13-11.23-4.82-11.23-10.13-11.23Z" />
    <path
      d="M365.18,136.72c0-6.13-3.38-9.44-8.48-9.44s-8.61,3.31-8.61,9.44v21.09h-9.65v-38.18h9.65v4.75c2.48-3.24,6.62-5.31,11.51-5.31,8.89,0,15.23,5.79,15.23,16.33v22.4h-9.65v-21.09Z" />
    <path d="M390.26,119.64l9.65,29.29,9.65-29.29h10.27l-14.13,38.18h-11.71l-14.06-38.18h10.34Z" />
    <path
      d="M440.22,119.01c6.13,0,10.34,2.89,12.61,6.06v-5.44h9.72v38.18h-9.72v-5.58c-2.27,3.31-6.62,6.2-12.68,6.2-9.65,0-17.36-7.92-17.36-19.85s7.72-19.57,17.43-19.57Zm2.48,8.48c-5.17,0-10.06,3.86-10.06,11.09s4.89,11.37,10.06,11.37,10.13-4,10.13-11.23-4.82-11.23-10.13-11.23Z" />
    <path
      d="M486.6,158.43c-9.58,0-16.26-5.58-16.68-12.68h9.72c.34,2.89,3.03,5.1,6.89,5.1s5.86-1.72,5.86-3.93c0-6.82-21.57-2.48-21.57-16.47,0-6.34,5.65-11.44,15.09-11.44s14.82,5.03,15.37,12.61h-9.23c-.28-2.96-2.62-4.96-6.41-4.96-3.58,0-5.44,1.45-5.44,3.65,0,6.96,21.15,2.62,21.43,16.61,0,6.55-5.72,11.51-15.02,11.51Z" />
  </g>
</svg>