<?xml version="1.0" encoding="UTF-8"?>
<svg id="Layer_1" data-name="Layer 1" xmlns="http://www.w3.org/2000/svg" viewBox="0 0 523.58 211.36">
  <defs>
    <style>
      .cls-1 {
        fill: #0052cc;
      }

      .cls-2 {
        fill: #fff;
      }
    </style>
  </defs>
  <rect class="cls-2" x="23.26" y="23.23" width="172.53" height="172.53"/>
  <g>
    <g>
      <path class="cls-2" d="M260.86,52.75c10.68,0,19.36,5.72,22.6,15.57h-11.09c-2.27-4.62-6.41-6.89-11.58-6.89-8.41,0-14.4,6.13-14.4,15.92s6,15.92,14.4,15.92c5.17,0,9.3-2.27,11.58-6.96h11.09c-3.24,9.92-11.92,15.57-22.6,15.57-13.85,0-24.39-10.13-24.39-24.53s10.54-24.6,24.39-24.6Z"/>
      <path class="cls-2" d="M306.68,62.67c6.13,0,10.34,2.89,12.61,6.06v-5.44h9.72v38.18h-9.72v-5.58c-2.27,3.31-6.62,6.2-12.68,6.2-9.65,0-17.36-7.92-17.36-19.85s7.72-19.57,17.43-19.57Zm2.48,8.48c-5.17,0-10.06,3.86-10.06,11.09s4.89,11.37,10.06,11.37,10.13-4,10.13-11.23-4.82-11.23-10.13-11.23Z"/>
      <path class="cls-2" d="M348.09,101.47h-9.65V63.29h9.65v5.93c2.41-3.93,6.41-6.48,11.71-6.48v10.13h-2.55c-5.72,0-9.16,2.21-9.16,9.58v19.02Z"/>
      <path class="cls-2" d="M382.96,102.09c-11.09,0-19.16-7.72-19.16-19.71s7.86-19.71,19.16-19.71,18.81,7.51,18.81,18.88c0,1.24-.07,2.48-.28,3.72h-27.91c.48,5.65,4.34,8.82,9.17,8.82,4.13,0,6.41-2.07,7.65-4.62h10.41c-2.07,7.03-8.41,12.61-17.85,12.61Zm-9.3-23.29h18.12c-.14-5.03-4.13-8.2-9.1-8.2-4.62,0-8.27,2.96-9.03,8.2Z"/>
      <path class="cls-2" d="M425.47,102.09c-11.09,0-19.16-7.72-19.16-19.71s7.86-19.71,19.16-19.71,18.81,7.51,18.81,18.88c0,1.24-.07,2.48-.28,3.72h-27.91c.48,5.65,4.34,8.82,9.17,8.82,4.13,0,6.41-2.07,7.65-4.62h10.41c-2.07,7.03-8.41,12.61-17.85,12.61Zm-9.3-23.29h18.12c-.14-5.03-4.13-8.2-9.1-8.2-4.62,0-8.27,2.96-9.03,8.2Z"/>
      <path class="cls-2" d="M460.96,101.47h-9.65V63.29h9.65v5.93c2.41-3.93,6.41-6.48,11.71-6.48v10.13h-2.55c-5.72,0-9.16,2.21-9.16,9.58v19.02Z"/>
      <path class="cls-2" d="M260.86,109.09c10.68,0,19.36,5.72,22.6,15.57h-11.09c-2.27-4.62-6.41-6.89-11.58-6.89-8.41,0-14.4,6.13-14.4,15.92s6,15.92,14.4,15.92c5.17,0,9.3-2.27,11.58-6.96h11.09c-3.24,9.92-11.92,15.57-22.6,15.57-13.85,0-24.39-10.13-24.39-24.53s10.54-24.6,24.39-24.6Z"/>
      <path class="cls-2" d="M306.68,119.01c6.13,0,10.34,2.89,12.61,6.06v-5.44h9.72v38.18h-9.72v-5.58c-2.27,3.31-6.62,6.2-12.68,6.2-9.65,0-17.36-7.92-17.36-19.85s7.72-19.57,17.43-19.57Zm2.48,8.48c-5.17,0-10.06,3.86-10.06,11.09s4.89,11.37,10.06,11.37,10.13-4,10.13-11.23-4.82-11.23-10.13-11.23Z"/>
      <path class="cls-2" d="M365.18,136.72c0-6.13-3.38-9.44-8.48-9.44s-8.61,3.31-8.61,9.44v21.09h-9.65v-38.18h9.65v4.75c2.48-3.24,6.62-5.31,11.51-5.31,8.89,0,15.23,5.79,15.23,16.33v22.4h-9.65v-21.09Z"/>
      <path class="cls-2" d="M390.26,119.64l9.65,29.29,9.65-29.29h10.27l-14.13,38.18h-11.71l-14.06-38.18h10.34Z"/>
      <path class="cls-2" d="M440.22,119.01c6.13,0,10.34,2.89,12.61,6.06v-5.44h9.72v38.18h-9.72v-5.58c-2.27,3.31-6.62,6.2-12.68,6.2-9.65,0-17.36-7.92-17.36-19.85s7.72-19.57,17.43-19.57Zm2.48,8.48c-5.17,0-10.06,3.86-10.06,11.09s4.89,11.37,10.06,11.37,10.13-4,10.13-11.23-4.82-11.23-10.13-11.23Z"/>
      <path class="cls-2" d="M486.6,158.43c-9.58,0-16.26-5.58-16.68-12.68h9.72c.34,2.89,3.03,5.1,6.89,5.1s5.86-1.72,5.86-3.93c0-6.82-21.57-2.48-21.57-16.47,0-6.34,5.65-11.44,15.09-11.44s14.82,5.03,15.37,12.61h-9.23c-.28-2.96-2.62-4.96-6.41-4.96-3.58,0-5.44,1.45-5.44,3.65,0,6.96,21.15,2.62,21.43,16.61,0,6.55-5.72,11.51-15.02,11.51Z"/>
    </g>
    <g>
      <path class="cls-1" d="M188.81,0H22.57C10.1,0,0,10.1,0,22.55V188.79c0,12.47,10.1,22.57,22.57,22.57H188.81c12.45,0,22.55-10.1,22.55-22.57V22.55c0-12.45-10.1-22.55-22.55-22.55ZM118.06,153.83l.39,2.18c.66,3.68,1.3,7.39,1.96,11.04,.18,1.1-.02,1.91-.68,2.69v.02c-1.98,2.4-3.94,4.8-5.9,7.2s-3.92,4.82-5.88,7.22c-.68,.82-1.47,1.26-2.24,1.26-.95,0-1.7-.66-2.18-1.25-1.76-2.14-3.52-4.29-5.28-6.45-2.16-2.66-4.34-5.32-6.53-7.94-.68-.84-.86-1.67-.66-2.9l2.02-11.29c.11-.61,.2-1.19,.31-1.8-27.65-5.7-48.43-30.19-48.43-59.53,0-33.57,27.21-60.77,60.77-60.77,19.36,0,36.59,9.04,47.72,23.14l-2.66,1.94-.05,.17-.55,.29c-1.63,1.19-3.26,2.4-4.89,3.61-9.28-11.62-23.56-19.07-39.56-19.07-27.96,0-50.69,22.73-50.69,50.69,0,24.31,17.21,44.69,40.11,49.57l2.25-12.76c-16.85-3.78-29.42-18.83-29.42-36.81,0-20.86,16.9-37.75,37.75-37.75,11.75,0,22.26,5.37,29.17,13.79l-.81,.59c-2.42,1.8-4.88,3.57-7.3,5.37l-.06,.04c-5.06-5.94-12.61-9.7-21.01-9.7-15.25,0-27.66,12.41-27.66,27.66,0,13,9.02,23.94,21.12,26.88l.35-2.02c.31-1.87,.64-3.74,.97-5.59l.06-.33h6.49c.81,0,1.61,0,2.33-.02,.49,.02,.99,.02,1.5,0l1.43,7.94c7.55-1.83,13.91-6.8,17.62-13.44l9.39,3.79c-5.02,9.81-14.21,17.12-25.24,19.6l.4,2.33c.62,3.48,1.23,6.97,1.83,10.43,15.44-3.28,28.31-13.62,35.03-27.48l6.95,2.8,.16,.05c.77,.29,1.52,.61,2.27,.92-8.01,17.05-23.72,29.75-42.66,33.66Zm-24.73-58.46c-.02-4.82,2.16-8.49,6.4-10.85,4.51-2.51,9.13-2.16,13.29,.77,3.5,2.46,5.15,6.29,5.1,10.08,0,.35-.04,.7-.07,1.06-.11,1.08-.46,2.13-.97,3.1-.66,1.3-1.32,2.6-2,3.9-.66,1.28-1.32,2.57-1.98,3.85-.15,.26-.51,.49-.82,.49-.93,0-1.83,.02-2.75,.02-2.58,.02-5.15,.02-7.72,0-.88,0-1.76-.02-2.62-.02-.31,0-.68-.24-.82-.49-.61-1.15-1.21-2.31-1.8-3.48-.75-1.41-1.48-2.82-2.2-4.25-.57-1.1-.93-2.31-1.01-3.56v-.02c-.02-.2-.02-.4-.02-.6Z"/>
      <path class="cls-1" d="M118.12,95.37c0,.35-.04,.7-.07,1.06-.11,1.08-.46,2.13-.97,3.1-.66,1.3-1.32,2.6-2,3.9-.66,1.28-1.32,2.57-1.98,3.85-.15,.26-.51,.49-.82,.49-.93,0-1.83,.02-2.75,.02-2.58,.02-5.15,.02-7.72,0-.88,0-1.76-.02-2.62-.02-.31,0-.68-.24-.82-.49-.61-1.15-1.21-2.31-1.8-3.48-.75-1.41-1.48-2.82-2.2-4.25-.57-1.1-.93-2.31-1.01-3.56v-.02c-.02-.2-.02-.4-.02-.6-.02-4.82,2.16-8.49,6.4-10.85,4.51-2.51,9.13-2.16,13.29,.77,3.5,2.46,5.15,6.29,5.1,10.08Z"/>
      <path class="cls-1" d="M119.73,169.74v.02c-1.98,2.4-3.94,4.8-5.9,7.2s-3.92,4.82-5.88,7.22c-.68,.82-1.47,1.26-2.24,1.26-.95,0-1.7-.66-2.18-1.25-1.76-2.14-3.52-4.29-5.28-6.45-2.16-2.66-4.34-5.32-6.53-7.94-.68-.84-.86-1.67-.66-2.9l2.02-11.29c.11-.61,.2-1.19,.31-1.8,.13-.68,.26-1.37,.37-2.07l.02-.16,1.37-7.72,2.25-12.76,1.78-9.94,.35-2.02c.31-1.87,.64-3.74,.97-5.59l.06-.33h6.49c.81,0,1.61,0,2.33-.02,.49,.02,.99,.02,1.5,0l1.43,7.94,.18,1.01c.53,2.97,1.04,5.96,1.58,8.93v.02l.4,2.33c.62,3.48,1.23,6.97,1.83,10.43,.42,2.31,.82,4.6,1.23,6.91l.02,.62,.13,.13,.39,2.29,.39,2.18c.66,3.68,1.3,7.39,1.96,11.04,.18,1.1-.02,1.91-.68,2.69Z"/>
      <path class="cls-2" d="M117.68,151.54l-.13-.13-.02-.62c-.4-2.31-.81-4.6-1.23-6.91-3.41,.73-6.95,1.12-10.58,1.12s-7.17-.38-10.58-1.12l-1.37,7.72-.02,.16c-.11,.7-.24,1.39-.37,2.07,3.98,.81,8.1,1.25,12.34,1.25s8.36-.44,12.34-1.25l-.39-2.29Z"/>
      <path class="cls-2" d="M112.49,122.17l-.18-1.01c-2.11,.53-4.31,.81-6.58,.81s-4.44-.27-6.54-.79l-1.78,9.94c2.68,.62,5.46,.93,8.32,.93s5.66-.31,8.34-.93v-.02c-.53-2.97-1.04-5.96-1.58-8.93Z"/>
      <g id="IexEbZ.tif">
        <g>
          <path class="cls-1" d="M118.12,95.37c0,.35-.04,.7-.07,1.06-.11,1.08-.46,2.13-.97,3.1-.66,1.3-1.32,2.6-2,3.9-.66,1.28-1.32,2.57-1.98,3.85-.15,.26-.51,.49-.82,.49-.93,0-1.83,.02-2.75,.02-2.58,.02-5.15,.02-7.72,0-.88,0-1.76-.02-2.62-.02-.31,0-.68-.24-.82-.49-.61-1.15-1.21-2.31-1.8-3.48-.75-1.41-1.48-2.82-2.2-4.25-.57-1.1-.93-2.31-1.01-3.56v-.02c-.02-.2-.02-.4-.02-.6-.02-4.82,2.16-8.49,6.4-10.85,4.51-2.51,9.13-2.16,13.29,.77,3.5,2.46,5.15,6.29,5.1,10.08Z"/>
          <path class="cls-1" d="M119.73,169.74v.02c-1.98,2.4-3.94,4.8-5.9,7.2s-3.92,4.82-5.88,7.22c-.68,.82-1.47,1.26-2.24,1.26-.95,0-1.7-.66-2.18-1.25-1.76-2.14-3.52-4.29-5.28-6.45-2.16-2.66-4.34-5.32-6.53-7.94-.68-.84-.86-1.67-.66-2.9l2.02-11.29c.11-.61,.2-1.19,.31-1.8,.13-.68,.26-1.37,.37-2.07l.02-.16,1.37-7.72,2.25-12.76,1.78-9.94,.35-2.02c.31-1.87,.64-3.74,.97-5.59l.06-.33h6.49c.81,0,1.61,0,2.33-.02,.49,.02,.99,.02,1.5,0l1.43,7.94,.18,1.01c.53,2.97,1.04,5.96,1.58,8.93v.02l.4,2.33c.62,3.48,1.23,6.97,1.83,10.43,.42,2.31,.82,4.6,1.23,6.91l.02,.62,.13,.13,.39,2.29,.39,2.18c.66,3.68,1.3,7.39,1.96,11.04,.18,1.1-.02,1.91-.68,2.69Z"/>
        </g>
      </g>
      <g id="IexEbZ.tif-2" data-name="IexEbZ.tif">
        <g>
          <path class="cls-1" d="M105.71,190.04c-2.16,0-4.2-1.04-5.74-2.94l-.47-.57c-1.6-1.96-3.21-3.91-4.81-5.88-2.15-2.64-4.32-5.29-6.49-7.9-1.55-1.92-2.07-4.05-1.66-6.57l2.34-13.17c.12-.63,.23-1.25,.33-1.86l.05-.36,5.75-32.41c.31-1.86,.64-3.75,.98-5.62l.68-4.11h10.38c.77,0,1.53,0,2.21-.02h.15s.15,0,.15,0c.38,.02,.77,.02,1.16,0l3.97-.15,4.3,24.16c.55,3.09,1.1,6.21,1.64,9.32l.19,1.11c.42,2.29,.82,4.59,1.23,6.91l1.76,10c.37,2.09,.74,4.17,1.11,6.24,.3,1.78,.09,3.38-.61,4.81v.36l-1.05,1.27c-1.89,2.29-3.75,4.57-5.62,6.86l-6.15,7.55c-1.56,1.9-3.62,2.95-5.79,2.95Zm-10.07-22.68c2.03,2.45,4.11,4.97,6.16,7.5,1.31,1.61,2.61,3.2,3.92,4.8l4.82-5.92c1.53-1.87,3.06-3.75,4.6-5.62v-.02l.65-.79c-.34-1.88-.68-3.8-1.02-5.72l-1.38-7.85-.25-.25-.19-2.24c-.38-2.19-.77-4.36-1.17-6.55l-.2-1.14c-.54-3.09-1.08-6.2-1.64-9.3l-2.91-16.43h-2.64c-.12,.7-.24,1.39-.36,2.09l-5.77,32.56c-.12,.74-.25,1.49-.39,2.21l-2.25,12.67Zm20.58-.56s0,0,0,0h0Z"/>
          <path class="cls-1" d="M105.66,112.39c-1.29,0-2.59,0-3.89-.01l-2.59-.02c-1.94,0-3.83-1.1-4.8-2.8l-.17-.32c-.59-1.13-1.18-2.25-1.75-3.39-.72-1.34-1.47-2.79-2.2-4.25-.87-1.68-1.38-3.49-1.49-5.34v-.05c-.02-.28-.03-.56-.03-.84-.03-6.41,3.08-11.69,8.75-14.85,6.02-3.35,12.47-2.99,18.17,1.03,4.48,3.14,7.11,8.32,7.04,13.87,0,.47-.04,.94-.09,1.43-.17,1.68-.67,3.29-1.48,4.83l-.06,.12c-.64,1.26-1.27,2.51-1.93,3.77l-2.06,4c-.97,1.71-2.86,2.81-4.81,2.81l-2.75,.02c-1.29,0-2.57,.01-3.86,.01Zm-4.26-9.18h.4c2.58,.02,5.12,.02,7.69,0h.55s.96-1.88,.96-1.88c.65-1.25,1.27-2.48,1.9-3.7l.09-.18c.3-.56,.45-1.04,.5-1.49,.02-.23,.05-.42,.05-.6v-.07c.04-2.55-1.11-4.84-3.15-6.26-2.78-1.96-5.54-2.13-8.43-.52-2.81,1.57-4.06,3.68-4.04,6.83v.37c.04,.55,.22,1.14,.52,1.72,.73,1.45,1.44,2.83,2.17,4.2,.27,.54,.54,1.06,.8,1.56Zm-2.22-.02h0Zm13.09,0h0Z"/>
        </g>
      </g>
      <g id="IexEbZ.tif-3" data-name="IexEbZ.tif">
        <g>
          <path class="cls-2" d="M119.73,169.74v.02c-1.98,2.4-3.94,4.8-5.9,7.2s-3.92,4.82-5.88,7.22c-.68,.82-1.47,1.26-2.24,1.26-.95,0-1.7-.66-2.18-1.25-1.76-2.14-3.52-4.29-5.28-6.45-2.16-2.66-4.34-5.32-6.53-7.94-.68-.84-.86-1.67-.66-2.9l2.02-11.29c.11-.61,.2-1.19,.31-1.8,.13-.68,.26-1.37,.37-2.07l.02-.16,1.37-7.72,2.25-12.76,1.78-9.94,.35-2.02c.31-1.87,.64-3.74,.97-5.59l.06-.33h6.49c.81,0,1.61,0,2.33-.02,.49,.02,.99,.02,1.5,0l1.43,7.94,.18,1.01c.53,2.97,1.04,5.96,1.58,8.93v.02l.4,2.33c.62,3.48,1.23,6.97,1.83,10.43,.42,2.31,.82,4.6,1.23,6.91l.02,.62,.13,.13,.39,2.29,.39,2.18c.66,3.68,1.3,7.39,1.96,11.04,.18,1.1-.02,1.91-.68,2.69Z"/>
          <path class="cls-2" d="M118.12,95.37c0,.35-.04,.7-.07,1.06-.11,1.08-.46,2.13-.97,3.1-.66,1.3-1.32,2.6-2,3.9-.66,1.28-1.32,2.57-1.98,3.85-.15,.26-.51,.49-.82,.49-.93,0-1.83,.02-2.75,.02-2.58,.02-5.15,.02-7.72,0-.88,0-1.76-.02-2.62-.02-.31,0-.68-.24-.82-.49-.61-1.15-1.21-2.31-1.8-3.48-.75-1.41-1.48-2.82-2.2-4.25-.57-1.1-.93-2.31-1.01-3.56v-.02c-.02-.2-.02-.4-.02-.6-.02-4.82,2.16-8.49,6.4-10.85,4.51-2.51,9.13-2.16,13.29,.77,3.5,2.46,5.15,6.29,5.1,10.08Z"/>
        </g>
      </g>
    </g>
  </g>
</svg>