<svg width="22" height="26" viewBox="0 0 22 26" fill="none" xmlns="http://www.w3.org/2000/svg">
<path d="M15.5282 0.238159C15.5885 0.238159 15.6487 0.238159 15.7123 0.238159C15.8601 2.04047 15.1635 3.38716 14.3169 4.36239C13.4862 5.33088 12.3487 6.27019 10.509 6.12767C10.3863 4.35116 11.084 3.10436 11.9294 2.13138C12.7135 1.22461 14.151 0.417717 15.5282 0.238159Z" fill="black"/>
<path d="M21.0974 18.9974C21.0974 19.0154 21.0974 19.0311 21.0974 19.048C20.5804 20.5944 19.8429 21.9198 18.9429 23.1497C18.1213 24.2664 17.1145 25.769 15.3168 25.769C13.7634 25.769 12.7316 24.7826 11.1396 24.7557C9.45554 24.7287 8.52942 25.5805 6.98967 25.7949C6.81353 25.7949 6.6374 25.7949 6.46467 25.7949C5.33401 25.6332 4.42152 24.7489 3.75676 23.9521C1.79656 21.5977 0.281814 18.5564 0 14.6645C0 14.2829 0 13.9025 0 13.5209C0.119316 10.7355 1.48975 8.47085 3.31131 7.3733C4.27266 6.78974 5.59423 6.29259 7.0658 6.51479C7.69647 6.6113 8.34078 6.82453 8.90555 7.03551C9.44077 7.23863 10.1101 7.59887 10.7442 7.57979C11.1737 7.56745 11.601 7.34637 12.0339 7.19038C13.3021 6.73811 14.5452 6.21964 16.1838 6.46317C18.1531 6.75719 19.5508 7.62132 20.4145 8.95454C18.7486 10.0016 17.4316 11.5795 17.6565 14.2739C17.8565 16.7215 19.2974 18.1535 21.0974 18.9974Z" fill="black"/>
</svg>
