<svg width="23" height="23" viewBox="0 0 23 23" fill="none" xmlns="http://www.w3.org/2000/svg">
<path d="M21.85 4.60127H16.1V2.6809C16.073 1.94474 15.7552 1.24932 15.2163 0.74707C14.6774 0.244823 13.9613 -0.0232611 13.225 0.0015851H9.775C9.03872 -0.0232611 8.32262 0.244823 7.78369 0.74707C7.24476 1.24932 6.92698 1.94474 6.9 2.6809V4.60127H1.15C0.845001 4.60127 0.552494 4.72242 0.336827 4.93807C0.12116 5.15372 0 5.44621 0 5.75119C0 6.05617 0.12116 6.34865 0.336827 6.56431C0.552494 6.77996 0.845001 6.90111 1.15 6.90111H2.3V19.5502C2.3 20.4652 2.66348 21.3426 3.31048 21.9896C3.95748 22.6365 4.835 23 5.75 23H17.25C18.165 23 19.0425 22.6365 19.6895 21.9896C20.3365 21.3426 20.7 20.4652 20.7 19.5502V6.90111H21.85C22.155 6.90111 22.4475 6.77996 22.6632 6.56431C22.8788 6.34865 23 6.05617 23 5.75119C23 5.44621 22.8788 5.15372 22.6632 4.93807C22.4475 4.72242 22.155 4.60127 21.85 4.60127ZM9.2 2.6809C9.2 2.49691 9.4415 2.30143 9.775 2.30143H13.225C13.5585 2.30143 13.8 2.49691 13.8 2.6809V4.60127H9.2V2.6809ZM18.4 19.5502C18.4 19.8552 18.2788 20.1477 18.0632 20.3634C17.8475 20.579 17.555 20.7002 17.25 20.7002H5.75C5.445 20.7002 5.15249 20.579 4.93683 20.3634C4.72116 20.1477 4.6 19.8552 4.6 19.5502V6.90111H18.4V19.5502Z" fill="#EB4335"/>
</svg>
