<svg width="32" height="31" viewBox="0 0 32 31" fill="none" xmlns="http://www.w3.org/2000/svg">
<ellipse cx="15.6949" cy="15.5" rx="15.6949" ry="15.5" fill="white"/>
<path d="M27.654 15.782C27.654 14.9027 27.5741 14.0572 27.4257 13.2456H15.6004V18.0478H22.3577C22.061 19.5921 21.1706 20.8998 19.8351 21.7791V24.9016H23.9101C26.2843 22.7372 27.654 19.5583 27.654 15.782Z" fill="#4285F4"/>
<path d="M15.601 27.9002C18.9911 27.9002 21.8332 26.7954 23.9107 24.9016L19.8357 21.7791C18.7171 22.5231 17.2903 22.974 15.601 22.974C12.3364 22.974 9.56274 20.7983 8.56968 17.8674H4.392V21.0689C6.45801 25.1158 10.6928 27.9002 15.601 27.9002Z" fill="#34A853"/>
<path d="M8.5697 17.8561C8.31858 17.1121 8.17019 16.323 8.17019 15.5001C8.17019 14.6772 8.31858 13.8881 8.5697 13.1441V9.94263H4.39202C3.53593 11.611 3.04511 13.4935 3.04511 15.5001C3.04511 17.5066 3.53593 19.3892 4.39202 21.0575L7.64513 18.555L8.5697 17.8561Z" fill="#FBBC05"/>
<path d="M15.601 8.03755C17.4501 8.03755 19.0938 8.66882 20.4064 9.88628L24.002 6.33537C21.8218 4.32882 18.9911 3.1001 15.601 3.1001C10.6928 3.1001 6.45801 5.88446 4.392 9.94264L8.56968 13.1441C9.56274 10.2132 12.3364 8.03755 15.601 8.03755Z" fill="#EA4335"/>
</svg>
