<svg width="22" height="19" viewBox="0 0 22 19" fill="none" xmlns="http://www.w3.org/2000/svg">
<path d="M8.12097 11.558C8.1207 11.5579 8.12043 11.5577 8.12016 11.5575L1 6.47151V12.3978V12.3978C0.999988 13.2176 1.00072 13.8354 1.04087 14.3269L8.12097 11.558ZM8.12097 11.558C8.14109 11.5725 8.16142 11.5871 8.18195 11.6018C8.67729 11.9574 9.28888 12.3964 10.0186 12.5847L10.0187 12.5847C10.6548 12.7488 11.3217 12.7538 11.9603 12.599C12.6925 12.4215 13.3105 11.9916 13.8109 11.6434C13.8318 11.6289 13.8524 11.6145 13.8728 11.6003C13.8731 11.6001 13.8734 11.6 13.8736 11.5998L21 6.666V12.3978C21 13.2176 20.9993 13.8355 20.9591 14.3269L21.9558 14.4083L20.9591 14.3269C20.9183 14.8268 20.8366 15.1974 20.673 15.5185L8.12097 11.558ZM2.63804 16.8295L2.63805 16.8295C2.95906 16.9931 3.32963 17.0748 3.82958 17.1156C4.32105 17.1558 4.93897 17.1565 5.75868 17.1565H16.2413C17.0611 17.1565 17.6789 17.1558 18.1704 17.1156C18.6703 17.0748 19.0409 16.9931 19.362 16.8295C19.9265 16.5419 20.3854 16.083 20.673 15.5186L2.63804 16.8295ZM2.63804 16.8295C2.07355 16.5419 1.61462 16.083 1.327 15.5186L2.63804 16.8295ZM0.721198 5.91521L0.721188 5.91522L0.721198 5.91521ZM0.455802 5.91521L0.455801 5.91522L0.455802 5.91521ZM1.32698 15.5185C1.16341 15.1974 1.08173 14.8269 1.04087 14.3269L1.32698 15.5185Z" stroke="#0052CC" stroke-width="2"/>
<path d="M20.331 2.10755L11.7118 8.07471L11.7118 8.07474C11.3419 8.33085 11.1428 8.46342 11.0243 8.53534C11.0222 8.53662 11.0202 8.53787 11.0181 8.53908C11.0161 8.53784 11.0141 8.53656 11.012 8.53524C10.8945 8.46155 10.6974 8.32604 10.3313 8.06457C10.3312 8.06455 10.3312 8.06453 10.3312 8.06451L1.7938 1.96633C2.03336 1.70689 2.31921 1.48944 2.63805 1.32699L2.63806 1.32698C2.95904 1.16342 3.32959 1.08173 3.82961 1.04087L20.331 2.10755ZM20.331 2.10755C20.0677 1.78596 19.7325 1.51578 19.3621 1.327L20.331 2.10755ZM5.75871 1H5.7587C4.93899 0.99999 4.32108 1.00072 3.82963 1.04087L5.75871 1ZM5.75871 1H16.2413C17.0611 0.99999 17.6789 1.00072 18.1704 1.04087L5.75871 1ZM11.018 8.55503C11.0181 8.55504 11.0181 8.55506 11.0182 8.55507L11.018 8.55503ZM18.1704 1.04087C18.6704 1.08173 19.0409 1.16341 19.362 1.32698L18.1704 1.04087Z" stroke="#0052CC" stroke-width="2"/>
</svg>
