<svg width="24" height="24" viewBox="0 0 24 24" fill="none" xmlns="http://www.w3.org/2000/svg">
<rect x="2.75" y="2.75" width="9.5" height="9.5" rx="2.25" stroke="#0052CC" stroke-width="1.5"/>
<path d="M4 15V15C4 17.7614 6.23858 20 9 20V20" stroke="#0052CC" stroke-width="1.5" stroke-linecap="round"/>
<path d="M15 4V4C17.7614 4 20 6.23858 20 9V9" stroke="#0052CC" stroke-width="1.5" stroke-linecap="round"/>
<rect x="11.75" y="11.75" width="9.5" height="9.5" rx="2.25" stroke="#0052CC" stroke-width="1.5"/>
<path d="M14.9539 17.2417C15.0653 17.4413 15.1879 17.6328 15.321 17.815C14.8989 18.069 14.4195 18.1962 13.8829 18.1966V19.4958C14.7614 19.4958 15.5462 19.2356 16.2118 18.7315C16.8773 19.2356 17.6622 19.4958 18.5407 19.4958V18.1966C18.0052 18.1966 17.5258 18.0693 17.1026 17.8147C17.2357 17.6326 17.3583 17.4412 17.4697 17.2417C17.8053 16.633 18.0521 15.9687 18.2009 15.2735H18.8318V13.9744H16.794V13H15.6296V13.9744H13.5918V15.2735H14.2227C14.3715 15.9687 14.6183 16.633 14.9539 17.2417ZM16.9952 15.2735C16.8748 15.7231 16.7023 16.1533 16.4822 16.5532C16.3999 16.7006 16.3096 16.8423 16.2118 16.9774C16.1211 16.8522 16.0369 16.7214 15.9596 16.5855C15.7305 16.1768 15.5518 15.7355 15.4282 15.2735H16.9952Z" fill="#0052CC"/>
<path d="M8.96582 10.3765L8.55176 9.01709H6.46973L6.05566 10.3765H4.75098L6.7666 4.64209H8.24707L10.2705 10.3765H8.96582ZM8.2627 8.00146L7.84863 6.67334C7.82259 6.5848 7.78743 6.47152 7.74316 6.3335C7.7015 6.19287 7.65853 6.05094 7.61426 5.90771C7.57259 5.76188 7.53874 5.63558 7.5127 5.52881C7.48665 5.63558 7.4502 5.76839 7.40332 5.92725C7.35905 6.0835 7.31608 6.23193 7.27441 6.37256C7.23275 6.51318 7.2028 6.61344 7.18457 6.67334L6.77441 8.00146H8.2627Z" fill="#0052CC"/>
</svg>
