<svg width="41" height="29" viewBox="0 0 41 29" fill="none" xmlns="http://www.w3.org/2000/svg">
<path d="M4.72727 20.0511V12.858H5.69886V20.0511H4.72727ZM1.61364 16.9375V15.9716H8.8125V16.9375H1.61364Z" fill="#3CB371"/>
<path d="M26.5 0C34.5086 0 41 6.49241 41 14.5C41 22.5076 34.5085 29 26.5 29C18.4915 29 12 22.5077 12 14.5C12 6.49231 18.4915 0 26.5 0Z" fill="#EFC75E"/>
<path d="M26.5 2.71875C19.9931 2.71875 14.7188 7.99317 14.7188 14.5C14.7188 21.0068 19.9932 26.2812 26.5 26.2812C33.0068 26.2812 38.2812 21.0068 38.2812 14.5C38.2812 7.99317 33.0069 2.71875 26.5 2.71875ZM26.5 24.4687C20.9945 24.4687 16.5313 20.0055 16.5313 14.5C16.5313 8.99447 20.9946 4.53122 26.5 4.53122C32.0054 4.53122 36.4688 8.99447 36.4688 14.5C36.4688 20.0055 32.0064 24.4687 26.5 24.4687ZM27.7054 13.7433C27.1635 13.5158 25.1715 13.2014 25.1715 12.3305C25.1715 11.688 25.9165 11.5021 26.3632 11.5021C26.7702 11.5021 27.2577 11.6308 27.5151 11.8873C27.6782 12.044 27.7453 12.1582 27.7988 12.316C27.8668 12.5017 27.9076 12.7011 28.165 12.7011H29.4926C29.8043 12.7011 29.8859 12.6441 29.8859 12.3015C29.8859 10.8315 28.734 10.0032 27.42 9.71777V8.57582C27.42 8.31938 27.3384 8.16164 27.0267 8.16164H25.9691C25.6574 8.16164 25.5758 8.31839 25.5758 8.57582V9.67424C24.1666 9.94519 22.9885 10.8306 22.9885 12.4293C22.9885 14.2418 24.2491 14.8127 25.6166 15.2686C26.7685 15.6547 27.9746 15.6683 27.9746 16.4676C27.9746 17.267 27.3793 17.4382 26.647 17.4382C26.145 17.4382 25.5903 17.3086 25.3185 16.967C25.1427 16.7531 25.0747 16.5673 25.0621 16.3815C25.0348 16.0245 24.8862 15.9819 24.5736 15.9819H23.2595C22.9478 15.9819 22.8662 16.0543 22.8662 16.3815C22.8662 18.0082 24.1676 18.9942 25.5759 19.3078V20.4217C25.5759 20.6781 25.6575 20.8358 25.9692 20.8358H27.0268C27.3385 20.8358 27.4201 20.6782 27.4201 20.4217V19.3378C29.0188 19.0939 30.1162 18.1242 30.1162 16.4115C30.1178 14.4711 28.6814 14.0569 27.7054 13.7433Z" fill="#CC9933"/>
<path d="M32.2822 14.4111C32.2822 18.2432 29.8129 21.3497 26.7669 21.3497C23.7208 21.3497 21.2515 18.2432 21.2515 14.4111C21.2515 10.579 23.7208 7.47241 26.7669 7.47241C29.8129 7.47241 32.2822 10.579 32.2822 14.4111Z" fill="#EFC75E"/>
<path d="M26.441 19.3438C25.7892 19.3438 25.208 19.2239 24.6976 18.9841C24.1903 18.7442 23.7875 18.4137 23.4893 17.9924C23.191 17.5712 23.0357 17.0885 23.0234 16.5442H24.9605C24.9821 16.9101 25.1358 17.2069 25.4217 17.4344C25.7077 17.6619 26.0474 17.7757 26.441 17.7757C26.7546 17.7757 27.0314 17.7065 27.2712 17.5681C27.5141 17.4267 27.7032 17.2315 27.8385 16.9824C27.9769 16.7303 28.046 16.4412 28.046 16.1153C28.046 15.7832 27.9753 15.4911 27.8339 15.239C27.6955 14.9869 27.5033 14.7901 27.2574 14.6487C27.0114 14.5072 26.73 14.435 26.4133 14.4319C26.1366 14.4319 25.8676 14.4888 25.6062 14.6025C25.3479 14.7163 25.1465 14.8716 25.002 15.0684L23.2264 14.7501L23.6737 9.76904H29.4481V11.4017H25.3203L25.0758 13.7677H25.1312C25.2972 13.5341 25.5478 13.3404 25.883 13.1866C26.2181 13.0329 26.5932 12.956 27.0083 12.956C27.5771 12.956 28.0845 13.0898 28.5303 13.3573C28.9761 13.6248 29.3282 13.9922 29.5865 14.4596C29.8448 14.9239 29.9724 15.4589 29.9693 16.0646C29.9724 16.7011 29.8248 17.2668 29.5265 17.7618C29.2313 18.2538 28.8178 18.6412 28.2859 18.9241C27.757 19.2039 27.1421 19.3438 26.441 19.3438Z" fill="#CC9933"/>
</svg>
