<svg width="24" height="24" viewBox="0 0 24 24" fill="none" xmlns="http://www.w3.org/2000/svg">
<path d="M6.75781 11.9326L3.42701 17.7017C3.24325 18.02 3.45414 18.4211 3.82051 18.4502L6.2496 18.6427C6.39978 18.6546 6.53659 18.7336 6.62199 18.8577L8.00331 20.8651C8.21164 21.1679 8.66446 21.1499 8.84822 20.8317L12.179 15.0626" stroke="#0052CC" stroke-width="1.5"/>
<path d="M17.2979 12.0474L20.6049 17.7754C20.7884 18.0932 20.5784 18.4938 20.2127 18.5237L17.7845 18.7225C17.6353 18.7348 17.4994 18.8132 17.4142 18.9364L16.0279 20.9398C15.8191 21.2416 15.3672 21.2231 15.1837 20.9053L11.8766 15.1773" stroke="#0052CC" stroke-width="1.5"/>
<rect x="5.75" y="2.75" width="12.5" height="12.5" rx="6.25" stroke="#0052CC" stroke-width="1.5"/>
<path d="M11.7547 7.21243L11.9999 6.45781L12.2451 7.21243L12.9584 6.98067L12.2451 7.21243C12.4392 7.80986 12.996 8.21436 13.6241 8.21436H14.4176L13.7757 8.68074C13.2675 9.04997 13.0548 9.70445 13.2489 10.3019L13.4941 11.0565L12.8522 10.5901C12.344 10.2209 11.6558 10.2209 11.1476 10.5901L10.5057 11.0565L10.7509 10.3019C10.945 9.70445 10.7324 9.04997 10.2241 8.68074L9.58223 8.21436H10.3757C11.0039 8.21436 11.5606 7.80986 11.7547 7.21243Z" fill="white" stroke="#0052CC" stroke-width="1.5"/>
</svg>
