<svg width="52" height="52" viewBox="0 0 52 52" fill="none" xmlns="http://www.w3.org/2000/svg">
<path d="M47.667 14.0835H34.667" stroke="#585D69" stroke-width="2.5" stroke-miterlimit="10" stroke-linecap="round" stroke-linejoin="round"/>
<path d="M12.9997 14.0835H4.33301" stroke="#585D69" stroke-width="2.5" stroke-miterlimit="10" stroke-linecap="round" stroke-linejoin="round"/>
<path d="M21.6663 21.6667C25.8545 21.6667 29.2497 18.2715 29.2497 14.0833C29.2497 9.89517 25.8545 6.5 21.6663 6.5C17.4782 6.5 14.083 9.89517 14.083 14.0833C14.083 18.2715 17.4782 21.6667 21.6663 21.6667Z" stroke="#585D69" stroke-width="2.5" stroke-miterlimit="10" stroke-linecap="round" stroke-linejoin="round"/>
<path d="M47.6667 37.9165H39" stroke="#585D69" stroke-width="2.5" stroke-miterlimit="10" stroke-linecap="round" stroke-linejoin="round"/>
<path d="M17.333 37.9165H4.33301" stroke="#585D69" stroke-width="2.5" stroke-miterlimit="10" stroke-linecap="round" stroke-linejoin="round"/>
<path d="M30.3333 45.5002C34.5215 45.5002 37.9167 42.105 37.9167 37.9168C37.9167 33.7287 34.5215 30.3335 30.3333 30.3335C26.1452 30.3335 22.75 33.7287 22.75 37.9168C22.75 42.105 26.1452 45.5002 30.3333 45.5002Z" stroke="#585D69" stroke-width="2.5" stroke-miterlimit="10" stroke-linecap="round" stroke-linejoin="round"/>
</svg>
