<svg width="18" height="21" viewBox="0 0 18 21" fill="none" xmlns="http://www.w3.org/2000/svg">
<path d="M9 11.55C8.65749 11.5463 8.32198 11.6405 8.03862 11.8202C7.75527 11.9998 7.53767 12.2561 7.41511 12.5546C7.29256 12.8532 7.27095 13.1796 7.35317 13.4899C7.43539 13.8003 7.6175 14.0797 7.875 14.2905V15.75C7.875 16.0285 7.99353 16.2955 8.2045 16.4925C8.41548 16.6894 8.70163 16.8 9 16.8C9.29837 16.8 9.58452 16.6894 9.7955 16.4925C10.0065 16.2955 10.125 16.0285 10.125 15.75V14.2905C10.3825 14.0797 10.5646 13.8003 10.6468 13.4899C10.7291 13.1796 10.7074 12.8532 10.5849 12.5546C10.4623 12.2561 10.2447 11.9998 9.96138 11.8202C9.67802 11.6405 9.34251 11.5463 9 11.55ZM14.625 7.35V5.25C14.625 3.85761 14.0324 2.52226 12.9775 1.53769C11.9226 0.553123 10.4918 0 9 0C7.50816 0 6.07742 0.553123 5.02252 1.53769C3.96763 2.52226 3.375 3.85761 3.375 5.25V7.35C2.47989 7.35 1.62145 7.68187 0.988515 8.27261C0.355579 8.86335 0 9.66457 0 10.5V17.85C0 18.6854 0.355579 19.4866 0.988515 20.0774C1.62145 20.6681 2.47989 21 3.375 21H14.625C15.5201 21 16.3786 20.6681 17.0115 20.0774C17.6444 19.4866 18 18.6854 18 17.85V10.5C18 9.66457 17.6444 8.86335 17.0115 8.27261C16.3786 7.68187 15.5201 7.35 14.625 7.35ZM5.625 5.25C5.625 4.41457 5.98058 3.61335 6.61351 3.02261C7.24645 2.43187 8.10489 2.1 9 2.1C9.89511 2.1 10.7536 2.43187 11.3865 3.02261C12.0194 3.61335 12.375 4.41457 12.375 5.25V7.35H5.625V5.25ZM15.75 17.85C15.75 18.1285 15.6315 18.3955 15.4205 18.5925C15.2095 18.7894 14.9234 18.9 14.625 18.9H3.375C3.07663 18.9 2.79048 18.7894 2.5795 18.5925C2.36853 18.3955 2.25 18.1285 2.25 17.85V10.5C2.25 10.2215 2.36853 9.95445 2.5795 9.75754C2.79048 9.56062 3.07663 9.45 3.375 9.45H14.625C14.9234 9.45 15.2095 9.56062 15.4205 9.75754C15.6315 9.95445 15.75 10.2215 15.75 10.5V17.85Z" fill="#0052CC"/>
</svg>
